<?xml version="1.0" encoding="UTF-8" standalone="no"?>
<!DOCTYPE svg PUBLIC "-//W3C//DTD SVG 1.1//EN" "http://www.w3.org/Graphics/SVG/1.1/DTD/svg11.dtd">
<svg width="100%" height="100%" viewBox="0 0 6500 6500" version="1.1" xmlns="http://www.w3.org/2000/svg" xmlns:xlink="http://www.w3.org/1999/xlink" xml:space="preserve" xmlns:serif="http://www.serif.com/" style="fill-rule:evenodd;clip-rule:evenodd;stroke-linejoin:round;stroke-miterlimit:1.41421;">
    <g>
        <path d="M3250,0C5043.72,0 6500,1456.28 6500,3250C6500,5043.72 5043.72,6500 3250,6500C1456.28,6500 0,5043.72 0,3250C0,1456.28 1456.28,0 3250,0ZM5624.69,1514.28C5627.16,1514.32 5629.63,1514.41 5632.1,1514.55L5634.3,1514.63C5634.89,1514.69 5635.45,1514.75 5636,1514.81C5639.47,1515.08 5642.94,1515.44 5646.4,1515.91C5650.39,1516.39 5654.09,1517 5660.21,1518.32L5660.31,1518.34L5660.41,1518.36L5660.66,1518.42L5660.99,1518.49C5712.93,1529.89 5759.32,1564.66 5784.82,1611.36C5786.56,1614.55 5788.21,1617.8 5789.77,1621.1C5790.53,1622.71 5791.28,1624.35 5792,1625.99C5793.32,1629.02 5794.56,1632.08 5795.72,1635.18C5802.01,1651.95 5805.9,1669.63 5807.18,1687.5C5807.49,1691.93 5807.49,1696.38 5807.65,1700.82L5807.65,4799.18C5807.23,4811.01 5807.44,4814.01 5805.75,4825.75C5805.21,4829.49 5804.55,4833.22 5803.78,4836.92C5802.82,4841.62 5801.67,4846.29 5800.34,4850.92C5792.35,4878.61 5777.66,4904.16 5758.08,4925.4C5741.46,4943.57 5721.28,4958.59 5698.53,4968.98C5692.57,4971.7 5686.47,4974.1 5680.26,4976.18C5678.11,4976.9 5675.95,4977.59 5673.76,4978.23C5665.21,4980.76 5656.48,4982.66 5647.65,4983.94C5641.75,4984.79 5638.06,4985.16 5634.34,4985.37L5634.3,4985.37C5629.87,4985.69 5625.42,4985.69 5620.98,4985.85C5620.98,4985.85 879.016,4985.85 879.016,4985.85C874.576,4985.69 870.129,4985.69 865.699,4985.37L865.629,4985.37C861.909,4985.15 858.202,4984.78 852.296,4983.93C802.506,4976.73 756.324,4948.48 726.977,4907.46L726.934,4907.4L726.78,4907.19L726.67,4907.03L726.636,4906.98L726.54,4906.85L726.318,4906.53L726.305,4906.52L726.299,4906.51C724.856,4904.46 723.455,4902.39 722.097,4900.28L722.073,4900.24L722.063,4900.23L721.982,4900.1L721.808,4899.83L721.733,4899.71L721.696,4899.66L721.645,4899.58L721.524,4899.39L721.394,4899.18L721.35,4899.11L721.31,4899.05L721.006,4898.57L720.977,4898.52L720.96,4898.49L720.645,4897.99L720.566,4897.86L720.563,4897.86L720.557,4897.85C706.941,4875.97 697.917,4851.26 694.249,4825.75C692.562,4814.01 692.772,4811.01 692.349,4799.18L692.349,1700.82C692.772,1688.99 692.562,1685.99 694.249,1674.25C695.012,1668.94 696.017,1663.68 697.253,1658.47C698.703,1652.15 700.491,1645.9 702.623,1639.74C708.943,1621.49 718.237,1604.41 729.883,1589.09C745.795,1567.79 766.122,1549.78 789.556,1536.98C806.685,1527.63 825.293,1521.01 844.468,1517.39C847.188,1516.87 849.925,1516.41 852.677,1516.02C858.719,1515.16 862.499,1514.79 866.304,1514.59C870.535,1514.31 874.779,1514.3 879.016,1514.15L5620.98,1514.15L5624.69,1514.28ZM1258.05,4612.52L5244.23,4612.52L4244.13,3299.1C4203.79,3334.11 4163.16,3368.79 4122.23,3403.07C4049.21,3464.42 3975.44,3524.28 3900.23,3581.89C3858.94,3613.64 3817.15,3644.74 3774.68,3674.86C3712.85,3719.02 3649.61,3761.43 3583.37,3799.23C3550.63,3818.08 3517.26,3835.67 3483.08,3851.36C3446.5,3868.31 3408.84,3883.04 3369.98,3893.47C3361.65,3895.72 3353.28,3897.75 3344.87,3899.56C3311.92,3906.65 3278.09,3910.14 3244.53,3908.48C3228.57,3907.69 3212.74,3905.89 3197.03,3903.23L3197.03,3903.23L3197.01,3903.22L3196.33,3903.11L3196.26,3903.1C3133.52,3892.36 3073.21,3868.01 3016.04,3839.98C2923.33,3794.6 2836.41,3738.1 2751.69,3678.45C2684.78,3631.54 2619.4,3582.47 2555.09,3531.99C2476.51,3470.42 2399.55,3406.8 2323.65,3342.33C2305.72,3327.14 2287.84,3311.89 2270.02,3296.6L1258.05,4612.52ZM1065.68,2159.25L1065.68,4250.24L1989.74,3048.65C1885.79,2954.15 1783.06,2858.2 1680.77,2761.19C1472.82,2563.97 1268.33,2363.65 1065.68,2159.25ZM5434.32,2163.01C5369.99,2228.47 5305.39,2293.61 5240.5,2358.57C5006.14,2593.19 4768.12,2824.6 4523.21,3049.37L5434.32,4245.91L5434.32,2163.01ZM5181.41,1887.48C4900.34,2174.29 4614.81,2456.01 4321.01,2728C4265.62,2779.28 4209.95,2830.31 4153.86,2880.87C4151.32,2882.96 4148.85,2885.14 4146.32,2887.25L4143.85,2889.46C4059.63,2964.96 3974.48,3039.91 3887.66,3112.89C3824.65,3165.67 3760.81,3217.43 3695.95,3267.85C3685.8,3275.74 3675.62,3283.61 3665.41,3291.44C3650.25,3303 3635.03,3314.47 3619.73,3325.84C3587.76,3349.61 3555.59,3373.07 3522.9,3395.68C3486.03,3420.98 3448.43,3445.26 3409.83,3468.03C3403.38,3471.84 3396.91,3475.61 3390.4,3479.33C3382.7,3483.66 3374.95,3487.91 3367.16,3492.08C3354.57,3498.81 3341.89,3505.39 3328.99,3511.46C3317.21,3516.9 3305.26,3521.93 3293.09,3526.41C3291.08,3527.15 3289.06,3527.89 3287.03,3528.61C3284.22,3529.56 3281.39,3530.47 3278.55,3531.33C3270.76,3533.71 3261.74,3535.43 3261.69,3535.43L3261.69,3535.43L3261.5,3535.41C3253.59,3534.2 3245.84,3531.78 3238.2,3529.23C3237.24,3528.91 3236.27,3528.58 3235.31,3528.25C3234.63,3528.01 3233.95,3527.77 3233.27,3527.53C3191.41,3512.7 3152.47,3491.32 3114.23,3469C3112.82,3468.18 3111.41,3467.35 3110,3466.53C3028.62,3418.67 2952.4,3364.5 2877.49,3308.48C2870.52,3303.27 2863.56,3298.04 2856.62,3292.79C2850.55,3288.19 2844.49,3283.57 2838.45,3278.95C2718.59,3187.33 2602.73,3091.05 2488.77,2992.31C2474.99,2980.36 2461.23,2968.38 2447.5,2956.37C2421.49,2933.62 2395.57,2910.76 2369.71,2887.81C2367.52,2885.86 2365.8,2884.32 2363.93,2882.73C2092.53,2641.73 1830.48,2391.22 1571.88,2136.33C1488.13,2053.79 1404.83,1970.88 1322.05,1887.48L5181.41,1887.48Z"/>
    </g>
</svg>
