<?xml version="1.0" encoding="UTF-8" standalone="no"?>
<!DOCTYPE svg PUBLIC "-//W3C//DTD SVG 1.1//EN" "http://www.w3.org/Graphics/SVG/1.1/DTD/svg11.dtd">
<svg width="100%" height="100%" viewBox="0 0 280 280" version="1.1" xmlns="http://www.w3.org/2000/svg" xmlns:xlink="http://www.w3.org/1999/xlink" xml:space="preserve" xmlns:serif="http://www.serif.com/" style="fill-rule:evenodd;clip-rule:evenodd;stroke-linejoin:round;stroke-miterlimit:1.41421;">
    <g id="draw">
        <path d="M140.269,0C217.389,0 280,62.611 280,139.731C280,216.85 217.389,279.461 140.269,279.461C63.15,279.461 0.539,216.85 0.539,139.731C0.539,62.611 63.15,0 140.269,0ZM62.052,90.103C62.036,90.102 60.697,90.013 59.999,90.898C59.41,91.646 59.505,93.04 59.505,93.04L59.505,187.16C59.505,187.16 59.405,188.204 59.999,188.996C60.112,189.147 60.513,189.475 61.812,189.47C73.361,189.431 124.811,189.47 137.26,189.47C139.48,189.47 142.228,189.618 142.981,188.142C143.657,186.818 142.288,183.706 140.996,182.027C136.265,175.878 116.638,150.358 116.638,150.358C116.638,150.358 134.978,144.284 134.699,121.273C134.383,95.187 109.647,90.117 109.577,90.103L62.052,90.103ZM154.068,188.94C153.474,188.148 153.573,187.103 153.573,187.103L153.573,92.984C153.573,92.984 153.479,91.589 154.068,90.842C154.77,89.951 156.12,90.046 156.12,90.046C156.12,90.046 187.514,90.151 198.731,90.046C207.419,89.965 222.819,97.919 222.453,115.467C222.112,131.845 215.967,135.047 215.967,135.047C215.967,135.047 231.101,138.191 231.189,160.972C231.281,184.452 209.153,189.414 202.741,189.414C190.292,189.414 167.429,189.375 155.881,189.414C154.582,189.418 154.181,189.09 154.068,188.94Z"/>
    </g>
</svg>
